<svg width="100%" viewBox="0 0 680 440" role="img" xmlns="http://www.w3.org/2000/svg">
<title>Unified Copilot — imagen promocional</title>
<desc>Imagen publicitaria para LinkedIn sobre la app Unified Copilot</desc>

<rect width="680" height="440" fill="#0d1117"/>

<rect x="0" y="0" width="3" height="440" fill="#238636"/>
<rect x="677" y="0" width="3" height="440" fill="#1f6feb"/>

<line x1="60" y1="0" x2="60" y2="440" stroke="#161b22" stroke-width="1"/>
<line x1="120" y1="0" x2="120" y2="440" stroke="#161b22" stroke-width="1"/>
<line x1="180" y1="0" x2="180" y2="440" stroke="#161b22" stroke-width="1"/>
<line x1="240" y1="0" x2="240" y2="440" stroke="#161b22" stroke-width="1"/>
<line x1="300" y1="0" x2="300" y2="440" stroke="#161b22" stroke-width="1"/>
<line x1="360" y1="0" x2="360" y2="440" stroke="#161b22" stroke-width="1"/>
<line x1="420" y1="0" x2="420" y2="440" stroke="#161b22" stroke-width="1"/>
<line x1="480" y1="0" x2="480" y2="440" stroke="#161b22" stroke-width="1"/>
<line x1="540" y1="0" x2="540" y2="440" stroke="#161b22" stroke-width="1"/>
<line x1="600" y1="0" x2="600" y2="440" stroke="#161b22" stroke-width="1"/>
<line x1="0" y1="60" x2="680" y2="60" stroke="#161b22" stroke-width="1"/>
<line x1="0" y1="120" x2="680" y2="120" stroke="#161b22" stroke-width="1"/>
<line x1="0" y1="180" x2="680" y2="180" stroke="#161b22" stroke-width="1"/>
<line x1="0" y1="240" x2="680" y2="240" stroke="#161b22" stroke-width="1"/>
<line x1="0" y1="300" x2="680" y2="300" stroke="#161b22" stroke-width="1"/>
<line x1="0" y1="360" x2="680" y2="360" stroke="#161b22" stroke-width="1"/>
<line x1="0" y1="420" x2="680" y2="420" stroke="#161b22" stroke-width="1"/>

<circle cx="340" cy="175" r="125" fill="#0d2137" stroke="#1f6feb" stroke-width="0.5"/>
<circle cx="340" cy="175" r="85" fill="#0d1a2e" stroke="#1f6feb" stroke-width="0.5"/>

<circle cx="200" cy="95" r="28" fill="#0d2e1a" stroke="#238636" stroke-width="1"/>
<text x="200" y="91" text-anchor="middle" font-family="monospace" font-size="11" fill="#3fb950">VAD</text>
<text x="200" y="105" text-anchor="middle" font-family="monospace" font-size="9" fill="#3fb950">Silero</text>

<circle cx="480" cy="95" r="28" fill="#1a1a2e" stroke="#6e40c9" stroke-width="1"/>
<text x="480" y="91" text-anchor="middle" font-family="monospace" font-size="11" fill="#8b5cf6">LLM</text>
<text x="480" y="105" text-anchor="middle" font-family="monospace" font-size="9" fill="#8b5cf6">OpenAI</text>

<circle cx="160" cy="252" r="28" fill="#2e1a0d" stroke="#f78166" stroke-width="1"/>
<text x="160" y="248" text-anchor="middle" font-family="monospace" font-size="11" fill="#f78166">STT</text>
<text x="160" y="262" text-anchor="middle" font-family="monospace" font-size="9" fill="#f78166">Whisper</text>

<circle cx="520" cy="252" r="28" fill="#0d2e2e" stroke="#2dd4bf" stroke-width="1"/>
<text x="520" y="248" text-anchor="middle" font-family="monospace" font-size="11" fill="#2dd4bf">SQLite</text>
<text x="520" y="262" text-anchor="middle" font-family="monospace" font-size="9" fill="#2dd4bf">memoria</text>

<line x1="224" y1="103" x2="310" y2="150" stroke="#238636" stroke-width="1" stroke-dasharray="4,3"/>
<line x1="456" y1="103" x2="374" y2="150" stroke="#6e40c9" stroke-width="1" stroke-dasharray="4,3"/>
<line x1="182" y1="234" x2="306" y2="192" stroke="#f78166" stroke-width="1" stroke-dasharray="4,3"/>
<line x1="498" y1="234" x2="374" y2="192" stroke="#2dd4bf" stroke-width="1" stroke-dasharray="4,3"/>

<text x="340" y="162" text-anchor="middle" font-family="monospace" font-size="22" font-weight="bold" fill="#e6edf3">Unified</text>
<text x="340" y="188" text-anchor="middle" font-family="monospace" font-size="22" font-weight="bold" fill="#58a6ff">Copilot</text>

<text x="340" y="38" text-anchor="middle" font-family="monospace" font-size="13" fill="#8b949e">Tu IA en cada llamada y video</text>

<rect x="40" y="308" width="600" height="96" rx="6" fill="#161b22" stroke="#30363d" stroke-width="0.5"/>

<rect x="55" y="322" width="10" height="10" rx="2" fill="#3fb950"/>
<text x="72" y="332" font-family="monospace" font-size="11" fill="#e6edf3">Transcripción en vivo</text>
<text x="72" y="348" font-family="monospace" font-size="10" fill="#3fb950">detecta silencio</text>

<rect x="220" y="322" width="10" height="10" rx="2" fill="#58a6ff"/>
<text x="237" y="332" font-family="monospace" font-size="11" fill="#e6edf3">Sugerencias IA</text>
<text x="237" y="348" font-family="monospace" font-size="10" fill="#58a6ff">tiempo real</text>

<rect x="380" y="322" width="10" height="10" rx="2" fill="#f78166"/>
<text x="397" y="332" font-family="monospace" font-size="11" fill="#e6edf3">Videos YouTube</text>
<text x="397" y="348" font-family="monospace" font-size="10" fill="#f78166">clasifica y reporta</text>

<rect x="548" y="322" width="10" height="10" rx="2" fill="#6e40c9"/>
<text x="565" y="332" font-family="monospace" font-size="11" fill="#e6edf3">Historial</text>
<text x="565" y="348" font-family="monospace" font-size="10" fill="#6e40c9">unificado</text>

<rect x="55" y="358" width="10" height="10" rx="2" fill="#2dd4bf"/>
<text x="72" y="368" font-family="monospace" font-size="11" fill="#e6edf3">Categorías</text>
<text x="72" y="384" font-family="monospace" font-size="10" fill="#2dd4bf">color + subcat</text>

<rect x="220" y="358" width="10" height="10" rx="2" fill="#d29922"/>
<text x="237" y="368" font-family="monospace" font-size="11" fill="#e6edf3">Catálogo Tools</text>
<text x="237" y="384" font-family="monospace" font-size="10" fill="#d29922">búsqueda RAG</text>

<rect x="380" y="358" width="10" height="10" rx="2" fill="#f85149"/>
<text x="397" y="368" font-family="monospace" font-size="11" fill="#e6edf3">Pendientes</text>
<text x="397" y="384" font-family="monospace" font-size="10" fill="#f85149">aprobación humana</text>

<rect x="548" y="358" width="10" height="10" rx="2" fill="#79c0ff"/>
<text x="565" y="368" font-family="monospace" font-size="11" fill="#e6edf3">ES / EN</text>
<text x="565" y="384" font-family="monospace" font-size="10" fill="#79c0ff">cambio en caliente</text>

<text x="340" y="425" text-anchor="middle" font-family="monospace" font-size="10" fill="#484f58">github.com/EmaSleal/call-copilot</text>
</svg>
